<svg width="30" height="33" viewBox="0 0 30 33" fill="none" xmlns="http://www.w3.org/2000/svg">
  <rect y="0.485352" width="30" height="31.965" rx="15" fill="#686868" />
  <g clip-path="url(#clip0)">
    <path
      d="M18.6689 7.94391H11.331C8.94287 7.94391 7 10.014 7 12.5586V20.3772C7 22.9217 8.94287 24.9918 11.331 24.9918H18.669C21.0571 24.9918 23 22.9217 23 20.3772V12.5586C23 10.014 21.0571 7.94391 18.6689 7.94391V7.94391ZM15 21.1292C12.5876 21.1292 10.6251 19.0382 10.6251 16.4678C10.6251 13.8975 12.5876 11.8064 15 11.8064C17.4123 11.8064 19.3749 13.8975 19.3749 16.4678C19.3749 19.0382 17.4123 21.1292 15 21.1292ZM19.4795 12.9058C18.7666 12.9058 18.1867 12.2879 18.1867 11.5284C18.1867 10.7688 18.7666 10.1509 19.4795 10.1509C20.1924 10.1509 20.7723 10.7688 20.7723 11.5284C20.7723 12.2879 20.1924 12.9058 19.4795 12.9058Z"
      fill="white" />
    <path
      d="M15.0008 12.8059C13.1057 12.8059 11.5638 14.4487 11.5638 16.4679C11.5638 18.4871 13.1057 20.13 15.0008 20.13C16.8959 20.13 18.4377 18.4871 18.4377 16.4679C18.4377 14.4487 16.8959 12.8059 15.0008 12.8059Z"
      fill="white" />
    <path
      d="M19.4792 11.1504C19.2837 11.1504 19.1245 11.32 19.1245 11.5283C19.1245 11.7367 19.2837 11.9063 19.4792 11.9063C19.6749 11.9063 19.8341 11.7368 19.8341 11.5283C19.8341 11.3198 19.6749 11.1504 19.4792 11.1504Z"
      fill="#2B2B2B" />
  </g>
  <defs>
    <clipPath id="clip0">
      <rect width="16" height="17.0479" fill="white" transform="translate(7 7.94391)" />
    </clipPath>
  </defs>
</svg>