<svg width="30" height="33" viewBox="0 0 30 33" fill="none" xmlns="http://www.w3.org/2000/svg">
  <ellipse cx="15" cy="16.4678" rx="15" ry="15.9825" fill="#686868" />
  <g clip-path="url(#clip0)">
    <path
      d="M21.7233 11.4831L23 10.1133V9.81348H18.5773L15.4253 18.6126L11.8393 9.81348H7.202V10.1133L8.69333 12.1269C8.83867 12.2757 8.91467 12.4933 8.89533 12.7124V20.6254C8.94133 20.9103 8.85867 21.2034 8.68 21.4105L7 23.694V23.9901H11.7633V23.6903L10.0833 21.4105C9.90133 21.2027 9.81533 20.9148 9.852 20.6254V13.7808L14.0333 23.9939H14.5193L18.1147 13.7808V21.9167C18.1147 22.1313 18.1147 22.1754 17.9893 22.316L16.696 23.7195V24.02H22.9707V23.7202L21.724 22.3511C21.6147 22.2584 21.558 22.1029 21.5813 21.9519V11.8824C21.558 11.7306 21.614 11.5751 21.7233 11.4831Z"
      fill="white" />
  </g>
  <defs>
    <clipPath id="clip0">
      <rect width="16" height="17.9451" fill="white" transform="translate(7 7.94391)" />
    </clipPath>
  </defs>
</svg>