<svg width="30" height="33" viewBox="0 0 30 33" fill="none" xmlns="http://www.w3.org/2000/svg">
  <mask id="mask0" mask-type="alpha" maskUnits="userSpaceOnUse" x="0" y="0" width="30" height="33">
    <g clip-path="url(#clip0)">
      <path
        d="M27.8364 0.485352H2.16362C0.968628 0.485352 0 1.51742 0 2.79069V30.145C0 31.4182 0.968628 32.4503 2.16362 32.4503H27.8364C29.0314 32.4503 30 31.4182 30 30.145V2.79069C30 1.51742 29.0314 0.485352 27.8364 0.485352V0.485352ZM21.8488 12.9468C21.8555 13.1041 21.8587 13.2621 21.8587 13.4209C21.8587 18.2684 18.3957 23.8582 12.0628 23.8584H12.063H12.0628C10.1184 23.8584 8.3091 23.2512 6.78543 22.2106C7.05482 22.2445 7.32903 22.2613 7.60666 22.2613C9.21982 22.2613 10.7043 21.675 11.8829 20.691C10.3757 20.6612 9.10492 19.6006 8.66638 18.143C8.87627 18.1859 9.0921 18.2093 9.31343 18.2093C9.62769 18.2093 9.9321 18.1642 10.2214 18.0801C8.64601 17.744 7.45926 16.2605 7.45926 14.4842C7.45926 14.4676 7.45926 14.4527 7.45972 14.4373C7.92366 14.7122 8.45421 14.8775 9.01909 14.8961C8.09464 14.2388 7.48695 13.1153 7.48695 11.8425C7.48695 11.1704 7.65747 10.5407 7.95319 9.99861C9.65103 12.2183 12.1884 13.6782 15.0499 13.8316C14.9908 13.5628 14.9604 13.2828 14.9604 12.9951C14.9604 10.97 16.5024 9.32698 18.4037 9.32698C19.3941 9.32698 20.2885 9.77302 20.9168 10.4861C21.7012 10.3213 22.4377 10.0159 23.1031 9.59573C22.8456 10.452 22.3 11.1704 21.5891 11.6248C22.2855 11.536 22.9493 11.3392 23.5661 11.047C23.1054 11.7828 22.5211 12.429 21.8488 12.9468Z"
        fill="white" />
    </g>
  </mask>
  <g mask="url(#mask0)">
    <ellipse cx="15" cy="16.4678" rx="15" ry="15.9825" fill="#686868" />
  </g>
  <defs>
    <clipPath id="clip0">
      <rect width="30" height="31.965" fill="white" transform="translate(0 0.485352)" />
    </clipPath>
  </defs>
</svg>