<svg width="30" height="33" viewBox="0 0 30 33" fill="none" xmlns="http://www.w3.org/2000/svg">
  <mask id="mask0" mask-type="alpha" maskUnits="userSpaceOnUse" x="0" y="0" width="30" height="33">
    <g clip-path="url(#clip0)">
      <path d="M13.0715 13.3222V19.1571L18.1191 16.265L13.0715 13.3222Z" fill="white" />
      <path
        d="M22.4762 0.485352H7.5C3.38095 0.485352 0 4.08775 0 8.50196V24.4591C0 28.8479 3.38095 32.4503 7.5 32.4503H22.4762C26.619 32.4503 30 28.8479 30 24.4337V8.50196C30 4.08775 26.619 0.485352 22.4762 0.485352ZM24.2857 17.2543C24.2857 18.9286 24.1429 20.6284 24.1429 20.6284C24.1429 20.6284 23.9762 22.049 23.4286 22.6832C22.7143 23.5204 21.9286 23.5204 21.5714 23.5712C18.9524 23.7741 15.0238 23.7995 15.0238 23.7995C15.0238 23.7995 10.1429 23.7234 8.64286 23.5712C8.2381 23.4951 7.28571 23.5204 6.57143 22.6832C6 22.049 5.85714 20.6284 5.85714 20.6284C5.85714 20.6284 5.71429 18.9286 5.71429 17.2543V15.6814C5.71429 14.007 5.85714 12.3073 5.85714 12.3073C5.85714 12.3073 6.02381 10.8867 6.57143 10.2524C7.28571 9.41525 8.07143 9.38988 8.42857 9.33914C11.0714 9.13619 15 9.11082 15 9.11082C15 9.11082 18.9286 9.13619 21.5476 9.33914C21.9048 9.38988 22.7143 9.41525 23.4286 10.2271C24 10.8613 24.1429 12.3073 24.1429 12.3073C24.1429 12.3073 24.2857 14.007 24.2857 15.6814V17.2543Z"
        fill="white" />
    </g>
  </mask>
  <g mask="url(#mask0)">
    <ellipse cx="15" cy="16.4678" rx="15" ry="15.9825" fill="#686868" />
  </g>
  <defs>
    <clipPath id="clip0">
      <rect width="30" height="31.965" fill="white" transform="translate(0 0.485352)" />
    </clipPath>
  </defs>
</svg>