<svg width="30" height="33" viewBox="0 0 30 33" fill="none" xmlns="http://www.w3.org/2000/svg">
  <mask id="mask0" mask-type="alpha" maskUnits="userSpaceOnUse" x="0" y="0" width="30" height="33">
    <g clip-path="url(#clip0)">
      <path
        d="M11.5708 8.78082C9.33268 9.89706 7.68982 12.0788 7.16602 14.7172C7.3803 14.7172 10.7136 14.7679 14.547 13.677C13.166 11.064 11.6898 8.93304 11.5708 8.78082Z"
        fill="white" />
      <path
        d="M15.2149 14.9962C11.0958 16.3154 7.14347 16.2139 7.00061 16.2139C7.00061 16.29 7.00061 16.3915 7.00061 16.493C7.00061 18.6747 7.78632 20.6789 9.04823 22.1757C9.04823 22.1757 11.2387 18.0151 15.5482 16.5437C15.6435 16.5184 15.7625 16.4676 15.8578 16.4423C15.6673 15.9603 15.4292 15.4782 15.2149 14.9962Z"
        fill="white" />
      <path
        d="M14.9997 7.94368C14.3569 7.94368 13.714 8.01979 13.1188 8.172C13.2378 8.34958 14.7378 10.4552 16.1188 13.1443C19.1188 11.952 20.2616 10.1 20.2854 10.0747C18.8807 8.75549 17.0235 7.94368 14.9997 7.94368Z"
        fill="white" />
      <path
        d="M17.9052 17.4571C18.9528 20.5268 19.3813 23.013 19.4528 23.5457C21.2385 22.2519 22.5242 20.197 22.8813 17.8377C22.7385 17.7616 20.5004 17.0005 17.9052 17.4571Z"
        fill="white" />
      <path
        d="M22.4762 0.485352H7.5C3.38095 0.485352 0 4.08775 0 8.50196V24.4591C0 28.8479 3.38095 32.4503 7.5 32.4503H22.4762C26.619 32.4503 30 28.8479 30 24.4337V8.50196C30 4.08775 26.619 0.485352 22.4762 0.485352ZM24.1667 18.472C24.0476 19.1062 23.8571 19.7404 23.619 20.3493C23.381 20.9328 23.0952 21.5163 22.7619 22.049C22.4286 22.5818 22.0476 23.0638 21.619 23.5204C21.1905 23.9771 20.7381 24.383 20.2381 24.7381C19.7381 25.0933 19.2143 25.3977 18.6429 25.6514C18.0714 25.9051 17.4762 26.1081 16.881 26.2349C16.2619 26.3618 15.6429 26.4379 15 26.4379C14.3571 26.4379 13.7381 26.3618 13.119 26.2349C12.5238 26.1081 11.9286 25.9051 11.3571 25.6514C10.8095 25.3977 10.2619 25.0933 9.7619 24.7381C9.2619 24.383 8.80952 23.9771 8.38095 23.5204C7.95238 23.0638 7.57143 22.5818 7.2381 22.049C6.90476 21.5163 6.61905 20.9582 6.38095 20.3493C6.14286 19.7404 5.95238 19.1062 5.83333 18.472C5.71429 17.8124 5.64286 17.1274 5.64286 16.4678C5.64286 15.7829 5.71429 15.1233 5.83333 14.4637C5.95238 13.8295 6.14286 13.1952 6.38095 12.5864C6.61905 12.0029 6.90476 11.4194 7.2381 10.8867C7.57143 10.3539 7.95238 9.87189 8.38095 9.41525C8.80952 8.9586 9.2619 8.5527 9.7619 8.19753C10.2619 7.84237 10.7857 7.53794 11.3571 7.28425C11.9286 7.03056 12.5238 6.82761 13.119 6.70076C13.7381 6.57392 14.381 6.49781 15 6.49781C15.6429 6.49781 16.2619 6.57392 16.881 6.70076C17.4762 6.82761 18.0714 7.03056 18.6429 7.28425C19.1905 7.53794 19.7381 7.84237 20.2381 8.19753C20.7381 8.5527 21.1905 8.9586 21.619 9.41525C22.0476 9.87189 22.4286 10.3539 22.7619 10.8867C23.0952 11.4194 23.381 11.9775 23.619 12.5864C23.8571 13.1952 24.0476 13.8295 24.1667 14.4637C24.2857 15.1233 24.3571 15.7829 24.3571 16.4678C24.3571 17.1528 24.2857 17.8124 24.1667 18.472Z"
        fill="white" />
      <path
        d="M16.4053 17.8376C16.4053 17.8376 16.3815 17.863 16.3577 17.863C11.6434 19.6135 10.0958 23.1398 10.0958 23.1905C11.4529 24.3067 13.1434 24.9917 15.0005 24.9917C16.0958 24.9917 17.1672 24.738 18.1196 24.3067C18.0005 23.571 17.5481 20.958 16.4053 17.8376Z"
        fill="white" />
      <path
        d="M21.1666 11.0642C21.1666 11.0896 19.8809 13.0684 16.7142 14.4383C16.9047 14.8442 17.0714 15.2501 17.238 15.6814C17.2857 15.8336 17.3571 15.9858 17.4047 16.1127C20.1428 15.7321 22.8571 16.3663 22.9761 16.3917C22.9523 14.3622 22.2857 12.5103 21.1666 11.0642Z"
        fill="white" />
    </g>
  </mask>
  <g mask="url(#mask0)">
    <ellipse cx="15" cy="16.4678" rx="15" ry="15.9825" fill="#686868" />
  </g>
  <defs>
    <clipPath id="clip0">
      <rect width="30" height="31.965" fill="white" transform="translate(0 0.485352)" />
    </clipPath>
  </defs>
</svg>