<svg width="30" height="33" viewBox="0 0 30 33" fill="none" xmlns="http://www.w3.org/2000/svg">
  <mask id="mask0" mask-type="alpha" maskUnits="userSpaceOnUse" x="0" y="0" width="30" height="33">
    <ellipse cx="15" cy="16.4678" rx="15" ry="15.9825" fill="white" />
  </mask>
  <g mask="url(#mask0)">
    <path
      d="M21.9984 0.485392L15.5 -1.11285L8.9984 0.485392C7.3484 0.485392 0 7.51768 0 9.27575L-2 21.7953C-2 23.5534 7.34944 32.4503 8.99944 32.4503H21.9984C23.6484 32.4503 29 26.7499 29 24.9918L32 10.6076C32 8.84955 23.6484 0.485392 21.9984 0.485392ZM20.4984 3.68188V8.47662H17.4984C16.5984 8.47662 15.9984 9.11592 15.9984 10.0749V13.2714H20.4984V18.0661H15.9984V29.2538H11.4984V18.0661H8.4984V13.2714H11.4984V9.27575C11.4984 6.23908 13.8984 3.68188 16.7484 3.68188H20.4984Z"
      fill="#686868" />
  </g>
</svg>