<svg width="30" height="33" viewBox="0 0 30 33" fill="none" xmlns="http://www.w3.org/2000/svg">
  <mask id="mask0" mask-type="alpha" maskUnits="userSpaceOnUse" x="0" y="0" width="30" height="33">
    <g clip-path="url(#clip0)">
      <path
        d="M27.8364 0.485352H2.16362C0.968628 0.485352 0 1.51742 0 2.79069V30.145C0 31.4182 0.968628 32.4503 2.16362 32.4503H27.8364C29.0314 32.4503 30 31.4182 30 30.145V2.79069C30 1.51742 29.0314 0.485352 27.8364 0.485352V0.485352ZM10.6412 24.6464H6.98799V12.9358H10.6412V24.6464ZM8.8147 11.3367H8.79089C7.565 11.3367 6.77216 10.4376 6.77216 9.31381C6.77216 8.16468 7.58926 7.29039 8.83896 7.29039C10.0887 7.29039 10.8577 8.16468 10.8815 9.31381C10.8815 10.4376 10.0887 11.3367 8.8147 11.3367ZM23.8138 24.6464H20.1611V18.3815C20.1611 16.8071 19.6321 15.7333 18.3103 15.7333C17.3012 15.7333 16.7001 16.4576 16.436 17.1568C16.3394 17.407 16.3158 17.7567 16.3158 18.1067V24.6464H12.6629C12.6629 24.6464 12.7107 14.0345 12.6629 12.9358H16.3158V14.5939C16.8013 13.796 17.6699 12.661 19.6081 12.661C22.0116 12.661 23.8138 14.3347 23.8138 17.9316V24.6464Z"
        fill="white" />
    </g>
  </mask>
  <g mask="url(#mask0)">
    <ellipse cx="15" cy="16.4678" rx="15" ry="15.9825" fill="#686868" />
  </g>
  <defs>
    <clipPath id="clip0">
      <rect width="30" height="31.965" fill="white" transform="translate(0 0.485352)" />
    </clipPath>
  </defs>
</svg>